User Type,Username,Date,Text
,.Leto.,2012-06-09T16:36Z,"from another torrent, since you didn't even bother giving us those infos:

General
Complete name: Wanderlust 720p BRRIP XVID AC3 - 26k.avi
Format: AVI
Format/Info: Audio Video Interleave
Format profile: OpenDML
Format settings: rec
File size: 2.50 GiB
Duration: 1h 38mn
Overall bit rate: 3 643 Kbps

Video
ID: 0
Format: MPEG-4 Visual
Format profile: Advanced Simple@L5
Format settings, BVOP: 2
Format settings, QPel: No
Format settings, GMC: No warppoints
Format settings, Matrix: Default (H.263)
Codec ID: XVID
Codec ID/Hint: XviD
Duration: 1h 38mn
Bit rate: 2 997 Kbps
Width: 1 280 pixels
Height: 688 pixels
Display aspect ratio: 1.85:1
Frame rate: 23.976 fps
Color space: YUV
Chroma subsampling: 4:2:0
Bit depth: 8 bits
Scan type: Progressive
Compression mode: Lossy
Bits/(Pixel*Frame): 0.142
Stream size: 2.05 GiB (82%)

Audio
ID: 1
Format: AC-3
Format/Info: Audio Coding 3
Mode extension: CM (complete main)
Format settings, Endianness: Big
Codec ID: 2000
Duration: 1h 38mn
Bit rate mode: Constant
Bit rate: 640 Kbps
Channel(s): 6 channels
Channel positions: Front: L C R, Side: L R, LFE
Sampling rate: 48.0 KHz
Bit depth: 16 bits
Compression mode: Lossy
Stream size: 449 MiB (18%)
Alignment: Aligned on interleaves
Interleave, duration: 64 ms (1.53 video frames)
Interleave, preload duration: 192 ms"
,.Leto.,2012-06-09T17:56Z,"english subtitles:
http://www.opensubtitles.org/en/subtitles/4571692/wanderlust-en"
